<svg xmlns="http://www.w3.org/2000/svg" version="1.1" xmlns:xlink="http://www.w3.org/1999/xlink" xmlns:svgjs="http://svgjs.dev/svgjs" width="1500" height="1500" viewBox="0 0 1500 1500"><rect width="1500" height="1500" fill="#ffffff"></rect><g transform="matrix(0.6666666666666666,0,0,0.6666666666666666,250,250)"><svg viewBox="0 0 280 280" data-background-color="#ffffff" preserveAspectRatio="xMidYMid meet" height="1500" width="1500" xmlns="http://www.w3.org/2000/svg" xmlns:xlink="http://www.w3.org/1999/xlink"><g id="tight-bounds" transform="matrix(1,0,0,1,0,0)"><svg viewBox="0 0 280 280" height="280" width="280"><g><svg viewBox="0 0 280 280" height="280" width="280"><g><svg viewBox="0 0 280 280" height="280" width="280"><g id="textblocktransform"><svg viewBox="0 0 280 280" height="280" width="280" id="textblock"><g><svg viewBox="0 0 280 280" height="280" width="280"><g transform="matrix(1,0,0,1,76.43895711334255,74.00336708925556)"><svg viewBox="0 0 127.12208577331488 131.99326582148888" height="131.99326582148888" width="127.12208577331488"><g id="icon-0"><svg xmlns="http://www.w3.org/2000/svg" xmlns:xlink="http://www.w3.org/1999/xlink" version="1.1" x="0" y="0" viewBox="5.7 4.5 60.675 63" enable-background="new 0 0 72 72" xml:space="preserve" height="131.99326582148888" width="127.12208577331488" class="icon-jxe-0" data-fill-palette-color="accent" id="jxe-0"><g fill="#dbb8d0" data-fill-palette-color="accent"><g fill="#dbb8d0" data-fill-palette-color="accent"><path d="M23.4 46.1C19.9 46.8 16.6 45.3 14.9 42.4 14.6 41.9 14 41.8 13.5 42 13 42.3 12.9 42.9 13.1 43.4 14.9 46.5 18.1 48.2 21.7 48.2 22.4 48.2 23.1 48.1 23.7 48 24.2 47.9 24.6 47.4 24.5 46.8 24.5 46.4 23.9 46 23.4 46.1" fill="#000000" data-fill-palette-color="accent"></path><path d="M58.3 13.5C58.4 14.1 58.9 14.4 59.4 14.3S60.3 13.7 60.2 13.2C60.1 12.3 59.8 11.4 59.4 10.6 59.2 10.1 58.6 9.9 58.1 10.1S57.4 10.9 57.6 11.4C58 12.1 58.2 12.8 58.3 13.5" fill="#000000" data-fill-palette-color="accent"></path><path d="M48.2 7.5C50.7 6.8 53.4 7.3 55.4 8.7 55.8 9 56.5 8.9 56.8 8.5S57 7.4 56.6 7.1C54.1 5.3 50.8 4.7 47.7 5.5 47.2 5.6 46.9 6.2 47 6.7 47.1 7.3 47.7 7.6 48.2 7.5" fill="#000000" data-fill-palette-color="accent"></path><path d="M17.4 23.8C19.9 25.2 25.3 25.7 28.3 25.6 28.4 25 28.5 24.3 28.8 23.6L23.6 20.6C23.1 20.3 23 19.7 23.2 19.2 23.5 18.7 24.1 18.6 24.6 18.8L29.8 21.8C30.2 21.3 30.8 20.7 31.3 20.3 29.9 17.7 26.7 13.2 24.3 11.7 23.5 11.2 22.7 11 21.8 11 20.6 11 19.4 11.5 18.7 12.4 18 13.2 17.8 14.2 18 15.3 18.1 15.8 17.8 16.3 17.3 16.4 15.9 16.9 15 17.9 14.9 19.4S15.4 22.7 17.4 23.8" fill="#000000" data-fill-palette-color="accent"></path><path d="M33.3 21.5C31.4 22.7 30.2 24.2 30.2 26.8 30.2 30.1 33 32.6 36.2 32.6S42 30 42.1 26.8C42 24.3 41 22.6 39.1 21.5 38.9 21.5 36.2 19.9 33.3 21.5" fill="#000000" data-fill-palette-color="accent"></path><polygon points="39,21.5 39,21.5 39,21.5   " fill="#000000" data-fill-palette-color="accent"></polygon><path d="M42.5 21.9L47.7 18.9C48.2 18.6 48.8 18.8 49.1 19.3S49.2 20.4 48.7 20.7L43.5 23.7C43.9 24.7 44 25.6 44 25.7 47 25.8 52.5 25.3 54.9 23.9 56.9 22.8 57.4 20.9 57.3 19.6 57.2 18.2 56.3 17.1 54.9 16.7 54.4 16.5 54.1 16 54.2 15.5 54.5 14.1 54 13.1 53.5 12.6 52.3 11.1 49.9 10.8 47.9 11.9 45.4 13.4 42.3 17.8 40.9 20.5 41.5 20.8 42 21.4 42.5 21.9" fill="#000000" data-fill-palette-color="accent"></path><path d="M35.1 18.9V12.9C35.1 12.3 35.5 11.9 36.1 11.9S37.1 12.3 37.1 12.9V18.9C37.8 19 38.6 19.2 39.1 19.4 40.7 16.9 43 11.9 43 9 43 6.2 41 4.5 39.1 4.5 38.3 4.5 37.5 4.8 36.8 5.4 36.4 5.7 35.8 5.7 35.5 5.4 34.8 4.8 34 4.5 33.2 4.5 31.3 4.5 29.3 6.2 29.3 9 29.3 11.9 31.6 16.9 33.2 19.4 33.7 19.2 34.4 19 35.1 18.9" fill="#000000" data-fill-palette-color="accent"></path><path d="M29.8 31.5L24.6 34.5C24.1 34.8 23.5 34.6 23.2 34.1S23.1 33 23.6 32.7L28.8 29.7C28.4 28.8 28.4 28.3 28.3 27.7 25.3 27.6 19.9 28.1 17.4 29.5 15.4 30.6 14.9 32.4 15 33.7 15.1 35.1 16 36.2 17.4 36.7 17.9 36.9 18.2 37.4 18.1 37.8 17.9 38.9 18.1 39.9 18.8 40.7 20 42.2 22.4 42.5 24.4 41.4 26.9 40 30.1 35.4 31.4 32.8 30.7 32.5 30.2 32 29.8 31.5" fill="#000000" data-fill-palette-color="accent"></path><path d="M39.1 49C41 49 43 47.3 43 44.5 43 41.6 40.6 36.6 39.1 34.1 38.7 34.2 37.9 34.5 37.1 34.6V40.6C37.1 41.2 36.7 41.6 36.1 41.6S35.1 41.2 35.1 40.6V34.6C34.1 34.5 33.2 34.1 33.1 34.1 31.6 36.6 29.2 41.6 29.2 44.5 29.2 45.8 29.6 47 30.4 47.8 31.7 49.1 33.6 49.3 35.1 48.3V66.5C35.1 67.1 35.5 67.5 36.1 67.5S37.1 67.1 37.1 66.5V48.3C37.7 48.7 38.4 49 39.1 49" fill="#000000" data-fill-palette-color="accent"></path><path d="M57.3 33.9C57.4 32.6 56.9 30.8 54.9 29.7 52.4 28.3 46.9 27.8 44 27.9 43.9 28.5 43.7 29.3 43.5 29.9L48.7 32.9C49.2 33.2 49.3 33.8 49.1 34.3 48.8 34.8 48.2 34.9 47.7 34.7L42.5 31.7C41.9 32.5 41.1 33.1 41 33.2 42.4 35.8 45.6 40.3 48 41.8 49.9 42.9 52.4 42.6 53.6 41.1 54.1 40.5 54.5 39.6 54.3 38.2 54.2 37.7 54.5 37.2 55 37.1 56.3 36.3 57.2 35.3 57.3 33.9" fill="#000000" data-fill-palette-color="accent"></path><path d="M11.9 54C11.3 54 10.9 54.4 10.9 55V57.2C10.9 57.8 11.3 58.2 11.9 58.2S12.9 57.8 12.9 57.2V55C12.9 54.4 12.5 54 11.9 54" fill="#000000" data-fill-palette-color="accent"></path><path d="M11.9 62.2C11.3 62.2 10.9 62.6 10.9 63.2V65.4C10.9 66 11.3 66.4 11.9 66.4S12.9 66 12.9 65.4V63.2C12.9 62.6 12.5 62.2 11.9 62.2" fill="#000000" data-fill-palette-color="accent"></path><path d="M17.1 59.2H14.9C14.3 59.2 13.9 59.6 13.9 60.2S14.3 61.2 14.9 61.2H17.1C17.7 61.2 18.1 60.8 18.1 60.2S17.7 59.2 17.1 59.2" fill="#000000" data-fill-palette-color="accent"></path><path d="M8.9 59.2H6.7C6.1 59.2 5.7 59.6 5.7 60.2S6.1 61.2 6.7 61.2H8.9C9.5 61.2 9.9 60.8 9.9 60.2S9.5 59.2 8.9 59.2" fill="#000000" data-fill-palette-color="accent"></path><path d="M52.5 50.5C52.9 54.3 51.7 57.8 49.3 60.2 47.2 62.3 44.2 63.5 41 63.5 40.5 63.5 40.1 63.5 39.6 63.4 39.1 63.4 38.8 63 38.7 62.5 38.4 58.9 39.4 55.6 41.6 53.2 44 50.5 47.6 49.2 51.7 49.6 52.1 49.7 52.4 50.1 52.5 50.5" fill="#000000" data-fill-palette-color="accent"></path><path d="M64 64.4C62.1 66.3 59.1 66.3 57.1 64.4 55.2 62.5 55.2 59.4 57.1 57.5S62.1 55.6 64 57.5C65.9 59.5 65.9 62.6 64 64.4" fill="#000000" data-fill-palette-color="accent"></path><path d="M60.8 51.9C59.5 50.6 59.5 48.6 60.8 47.3 62 46.1 64.1 46.1 65.4 47.3 66.7 48.6 66.7 50.6 65.4 51.9 64 53.2 62 53.2 60.8 51.9" fill="#000000" data-fill-palette-color="accent"></path></g></g></svg></g></svg></g><g id="text-0"><path d="M26.821 108.622l-1.963-0.695c0.443-1.251 0.609-2.073 0.496-2.465-0.109-0.383-0.279-0.652-0.512-0.806-0.229-0.146-0.522-0.282-0.879-0.409v0l-18.981-6.723c-0.779-0.276-1.307-0.316-1.585-0.12v0c-0.508 0.359-0.986 1.171-1.434 2.435v0l-1.963-0.695 3.463-9.778c1.732-4.89 4.217-7.585 7.455-8.084v0c1.281-0.207 2.681-0.042 4.2 0.497 1.519 0.538 2.724 1.306 3.614 2.304v0c2.394 2.716 2.715 6.545 0.965 11.486v0c-0.081 0.23-0.168 0.454-0.26 0.673v0l-0.591 1.666 5.651 2.002c0.607 0.215 1.106 0.356 1.499 0.423 0.395 0.061 0.801-0.061 1.218-0.366 0.417-0.305 0.998-1.508 1.741-3.608v0l1.964 0.695zM17.056 97.274l0.702-1.982c0.785-2.215 0.837-4.108 0.157-5.679-0.686-1.572-2.143-2.753-4.371-3.542v0c-2.72-0.963-4.937-0.474-6.653 1.47v0c-0.626 0.691-1.143 1.614-1.553 2.769v0l-0.885 2.5z" fill="#000000" data-fill-palette-color="primary"></path><path d="M75.863 29.937v0l-10.707 7.663c1.269 1.774 2.667 2.843 4.194 3.207 1.527 0.365 2.907 0.106 4.141-0.777v0c1.658-1.186 2.359-2.721 2.103-4.603v0l2.285-1.66c0.551 1.271 0.54 2.687-0.034 4.247-0.569 1.556-1.8 3.012-3.695 4.368-1.889 1.352-3.94 1.937-6.153 1.755v0c-2.656-0.231-4.9-1.628-6.733-4.189-1.833-2.561-2.654-5.093-2.462-7.596 0.188-2.508 1.504-4.637 3.949-6.387v0c3.222-2.306 6.23-2.501 9.025-0.586v0c1.125 0.769 2.019 1.616 2.681 2.541 0.662 0.925 1.131 1.598 1.406 2.017zM70.638 30.178v0c-2.251-3.145-4.445-3.953-6.581-2.423v0c-1.201 0.859-1.805 1.999-1.813 3.42-0.002 1.417 0.56 2.976 1.686 4.678v0l7.114-5.091c-0.136-0.202-0.272-0.397-0.406-0.584z" fill="#000000" data-fill-palette-color="primary"></path><path d="M131.346 11.587v0c-0.025-1.517 0.188-2.919 0.641-4.207 0.452-1.295 1.095-2.372 1.927-3.233v0c1.638-1.694 3.842-2.564 6.612-2.611v0c2.797-0.047 5.066 0.752 6.807 2.396 1.742 1.651 2.638 4.013 2.69 7.088 0.052 3.081-0.699 5.587-2.252 7.516-1.546 1.936-3.849 2.93-6.91 2.981v0c-3.054 0.051-5.393-0.834-7.015-2.656-1.616-1.829-2.449-4.254-2.5-7.274zM140.823 19.242v0c1.47-0.025 2.65-0.715 3.542-2.071 0.892-1.349 1.317-3.24 1.276-5.671v0c-0.066-3.907-1.092-6.329-3.078-7.265v0c-0.608-0.295-1.274-0.436-1.999-0.423v0c-2.336 0.039-3.836 1.48-4.5 4.323v0c-0.234 0.979-0.34 2.119-0.318 3.419v0c0.042 2.506 0.531 4.418 1.468 5.737 0.944 1.325 2.147 1.976 3.609 1.951z" fill="#000000" data-fill-palette-color="primary"></path><path d="M219.548 29.667v0c-1.707-1.175-3.456-1.598-5.245-1.267v0l-6.101 8.862c-0.442 0.642-0.617 1.117-0.526 1.427v0c0.172 0.538 0.763 1.155 1.773 1.849v0l-1.18 1.716-7.942-5.467 1.181-1.716c0.898 0.618 1.525 0.914 1.88 0.888 0.355-0.027 0.629-0.126 0.822-0.298 0.198-0.168 0.404-0.408 0.619-0.721v0l5.865-8.519c0.515-0.748 0.784-1.282 0.807-1.602 0.029-0.317-0.249-0.677-0.835-1.081v0l-0.945-0.651 1.186-1.724c0.976 0.672 1.795 1.125 2.457 1.359 0.662 0.233 1.133 0.397 1.413 0.491 0.28 0.094 0.554 0.234 0.822 0.418v0c0.552 0.38 0.805 0.789 0.76 1.226-0.046 0.437-0.309 1.004-0.789 1.702v0c1.761-0.169 3.49 0.084 5.188 0.759v0c0.568 0.226 1.086 0.501 1.554 0.824v0c3.37 2.32 3.516 5.714 0.441 10.182v0l-4.16 6.042c-0.472 0.686-0.681 1.204-0.626 1.555 0.045 0.352 0.512 0.833 1.399 1.444v0l-1.181 1.715-7.389-5.086 1.181-1.716c0.948 0.653 1.585 0.947 1.909 0.882 0.326-0.055 0.578-0.177 0.757-0.366 0.17-0.187 0.363-0.437 0.578-0.75v0l4.021-5.841c0.999-1.451 1.55-2.539 1.655-3.264v0c0.194-1.429-0.256-2.519-1.349-3.272z" fill="#000000" data-fill-palette-color="primary"></path><path d="M243.467 96.942v0c0.051 0.327 0.117 0.594 0.198 0.803 0.081 0.208 0.271 0.421 0.57 0.638 0.302 0.224 0.661 0.416 1.078 0.578v0c0.796 0.322 1.698 0.524 2.704 0.606 1.01 0.074 1.764 0.022 2.262-0.153 0.504-0.178 0.866-0.375 1.085-0.589 0.217-0.22 0.391-0.447 0.524-0.681 0.139-0.236 0.271-0.484 0.395-0.743 0.124-0.259 0.324-0.506 0.6-0.741v0l10.867-9.674c0.646-0.509 1.055-0.948 1.226-1.317 0.171-0.369 0.092-1.02-0.238-1.953v0l1.973-0.698 3.405 9.626-1.973 0.698c-0.486-1.373-0.888-2.165-1.206-2.375-0.325-0.208-0.607-0.274-0.846-0.197-0.241 0.071-0.52 0.227-0.836 0.469v0l-10.589 8.756 13.763 0.218c0.787 0.031 1.249-0.226 1.387-0.771 0.131-0.542-0.056-1.528-0.562-2.959v0l1.974-0.698 2.947 8.333-1.973 0.698c-0.278-0.785-0.644-1.324-1.099-1.615-0.453-0.285-1.046-0.438-1.779-0.459v0l-14.484-0.276c-1.085-0.083-2.141-0.152-3.166-0.205-1.025-0.054-2-0.129-2.925-0.226v0c-2.05-0.23-3.697-0.682-4.941-1.356-1.244-0.673-2.099-1.668-2.564-2.983-0.465-1.315-0.499-2.446-0.1-3.392 0.392-0.943 1.016-1.566 1.871-1.869 0.849-0.3 1.61-0.304 2.281-0.009 0.667 0.303 1.128 0.812 1.381 1.527v0c0.364 1.028 0.161 1.897-0.608 2.607v0c-0.232 0.218-0.501 0.382-0.807 0.49v0c-0.594 0.21-1.192 0.174-1.795-0.108z" fill="#000000" data-fill-palette-color="primary"></path><path d="M2.242 140.001c0-6.001 4.865-10.867 10.867-10.867 6.001 0 10.867 4.865 10.866 10.867 0 6.001-4.865 10.867-10.866 10.867-6.001 0-10.867-4.865-10.867-10.867z" fill="#000000" data-fill-palette-color="primary"></path><path d="M258.267 140.001c0-6.001 4.865-10.867 10.866-10.867 6.001 0 10.867 4.865 10.867 10.867 0 6.001-4.865 10.867-10.867 10.867-6.001 0-10.867-4.865-10.866-10.867z" fill="#000000" data-fill-palette-color="primary"></path></g><g id="text-1"><path d="M8.695 177.8l1.963-0.695c0.443 1.251 0.832 1.994 1.166 2.227 0.326 0.23 0.627 0.331 0.905 0.305 0.269-0.031 0.583-0.109 0.941-0.236v0l18.98-6.724c0.779-0.276 1.215-0.578 1.307-0.905v0c0.169-0.599 0.029-1.53-0.418-2.794v0l1.963-0.695 3.463 9.778c1.732 4.89 1.497 8.548-0.704 10.973v0c-0.865 0.967-2.057 1.72-3.576 2.258-1.519 0.538-2.939 0.7-4.258 0.485v0c-3.569-0.604-6.229-3.376-7.98-8.318v0c-0.081-0.23-0.155-0.459-0.222-0.687v0l-0.59-1.666-5.65 2.001c-0.607 0.215-1.084 0.42-1.431 0.615-0.345 0.201-0.584 0.552-0.716 1.051-0.132 0.499 0.174 1.799 0.917 3.9v0l-1.963 0.695zM23.426 180.472l0.702 1.982c0.785 2.215 1.935 3.719 3.452 4.511 1.523 0.79 3.398 0.79 5.626 0.001v0c2.72-0.963 4.135-2.74 4.245-5.33v0c0.051-0.931-0.128-1.974-0.537-3.129v0l-0.885-2.5z" fill="#000000" data-fill-palette-color="secondary"></path><path d="M74.853 251.476v0l-10.707-7.663c-1.269 1.774-1.83 3.442-1.683 5.005 0.147 1.563 0.838 2.786 2.072 3.669v0c1.658 1.186 3.336 1.355 5.035 0.505v0l2.309 1.627c-1.025 0.932-2.369 1.378-4.031 1.338-1.657-0.036-3.432-0.732-5.327-2.088-1.889-1.352-3.104-3.105-3.646-5.257v0c-0.638-2.589-0.04-5.163 1.793-7.725 1.833-2.561 3.964-4.155 6.395-4.781 2.434-0.632 4.874-0.072 7.319 1.678v0c3.222 2.306 4.378 5.09 3.467 8.353v0c-0.365 1.313-0.878 2.432-1.54 3.357-0.662 0.925-1.147 1.586-1.456 1.982zM72.939 246.608v0c2.251-3.145 2.307-5.482 0.171-7.011v0c-1.201-0.859-2.475-1.063-3.823-0.612-1.342 0.455-2.637 1.49-3.883 3.105v0l7.113 5.091c0.147-0.194 0.288-0.385 0.422-0.573z" fill="#000000" data-fill-palette-color="secondary"></path><path d="M131.35 268.22v0c0.025-1.517 0.286-2.911 0.781-4.184 0.496-1.279 1.174-2.334 2.035-3.166v0c1.694-1.638 3.926-2.434 6.695-2.387v0c2.797 0.047 5.038 0.921 6.723 2.622 1.685 1.708 2.502 4.1 2.451 7.174-0.052 3.081-0.886 5.56-2.503 7.437-1.61 1.883-3.945 2.799-7.006 2.748v0c-3.054-0.051-5.362-1.015-6.922-2.891-1.554-1.882-2.305-4.333-2.254-7.353zM140.564 276.188v0c1.47 0.025 2.673-0.626 3.609-1.951 0.937-1.319 1.425-3.194 1.467-5.625v0c0.066-3.907-0.879-6.362-2.834-7.364v0c-0.598-0.315-1.259-0.478-1.983-0.49v0c-2.336-0.039-3.884 1.351-4.642 4.169v0c-0.267 0.971-0.411 2.107-0.434 3.407v0c-0.042 2.506 0.383 4.433 1.275 5.783 0.898 1.356 2.079 2.047 3.542 2.071z" fill="#000000" data-fill-palette-color="secondary"></path><path d="M211.441 238.559v0c-1.707 1.175-2.726 2.658-3.056 4.447v0l6.101 8.862c0.442 0.642 0.823 0.975 1.145 1v0c0.564 0.031 1.351-0.301 2.36-0.996v0l1.181 1.716-7.941 5.467-1.181-1.716c0.898-0.618 1.398-1.098 1.5-1.44 0.102-0.342 0.107-0.633 0.015-0.873-0.086-0.245-0.237-0.523-0.452-0.836v0l-5.864-8.519c-0.515-0.748-0.918-1.19-1.209-1.327-0.286-0.14-0.722-0.009-1.307 0.395v0l-0.946 0.651-1.187-1.724c0.976-0.672 1.692-1.275 2.146-1.81 0.454-0.535 0.775-0.916 0.964-1.145 0.188-0.228 0.416-0.435 0.684-0.619v0c0.552-0.38 1.024-0.471 1.416-0.271 0.392 0.199 0.828 0.647 1.308 1.344v0c0.471-1.705 1.324-3.23 2.561-4.575v0c0.414-0.45 0.856-0.836 1.324-1.158v0c3.37-2.32 6.593-1.245 9.669 3.223v0l4.159 6.042c0.472 0.686 0.882 1.066 1.229 1.14 0.345 0.083 0.961-0.181 1.848-0.791v0l1.181 1.715-7.389 5.087-1.181-1.715c0.948-0.653 1.45-1.142 1.505-1.468 0.065-0.324 0.041-0.604-0.071-0.839-0.114-0.226-0.279-0.495-0.494-0.807v0l-4.021-5.841c-0.999-1.451-1.818-2.354-2.459-2.711v0c-1.265-0.691-2.445-0.661-3.538 0.092z" fill="#000000" data-fill-palette-color="secondary"></path><path d="M275.407 194.359v0c0.166-0.286 0.283-0.536 0.351-0.748 0.068-0.213 0.054-0.498-0.042-0.856-0.094-0.364-0.252-0.739-0.474-1.127v0c-0.417-0.751-0.991-1.475-1.722-2.171-0.739-0.693-1.358-1.127-1.855-1.303-0.504-0.178-0.909-0.253-1.214-0.225-0.307 0.035-0.586 0.102-0.836 0.2-0.257 0.096-0.515 0.206-0.774 0.33-0.259 0.124-0.57 0.19-0.932 0.198v0l-14.534 0.689c-0.822-0.011-1.416 0.074-1.781 0.253-0.365 0.18-0.713 0.736-1.043 1.668v0l-1.973-0.698 3.405-9.626 1.973 0.698c-0.486 1.373-0.671 2.241-0.555 2.606 0.122 0.366 0.3 0.595 0.534 0.684 0.232 0.096 0.547 0.15 0.945 0.162v0l13.739-0.15-10.564-8.824c-0.592-0.519-1.113-0.609-1.563-0.273-0.443 0.339-0.918 1.224-1.424 2.654v0l-1.973-0.698 2.948-8.333 1.973 0.698c-0.278 0.785-0.331 1.435-0.161 1.948 0.173 0.507 0.538 0.998 1.094 1.475v0l11.089 9.322c0.792 0.747 1.569 1.464 2.332 2.151 0.763 0.687 1.474 1.358 2.132 2.015v0c1.449 1.468 2.446 2.855 2.99 4.161 0.544 1.306 0.583 2.617 0.117 3.932-0.465 1.315-1.15 2.215-2.054 2.7-0.898 0.487-1.775 0.579-2.63 0.276-0.849-0.3-1.442-0.776-1.78-1.427-0.329-0.655-0.366-1.34-0.113-2.055v0c0.364-1.028 1.068-1.576 2.112-1.645v0c0.317-0.024 0.629 0.018 0.936 0.126v0c0.594 0.21 1.036 0.614 1.327 1.213z" fill="#000000" data-fill-palette-color="secondary"></path></g></svg></g></svg></g></svg></g><g></g></svg></g><defs></defs></svg><rect width="280" height="280" fill="none" stroke="none" visibility="hidden"></rect></g></svg></g></svg>